# 3ds Max Wavefront OBJ Exporter v0.97b - (c)2007 guruware
# File Created: 12.08.2014 14:27:13

mtllib QiuGan_02.mtl

#
# object Cylinder004
#

v  0.1997 19.4655 -0.0000
v  0.1729 19.4655 0.0998
v  0.1418 14.8003 0.0819
v  0.1637 14.8003 -0.0000
v  0.0998 19.4655 0.1729
v  0.0819 14.8003 0.1418
v  -0.0000 19.4655 0.1997
v  -0.0000 14.8003 0.1637
v  -0.0998 19.4655 0.1729
v  -0.0819 14.8003 0.1418
v  -0.1729 19.4655 0.0998
v  -0.1418 14.8003 0.0819
v  -0.1997 19.4655 -0.0000
v  -0.1637 14.8003 -0.0000
v  -0.1729 19.4655 -0.0998
v  -0.1418 14.8003 -0.0819
v  -0.0998 19.4655 -0.1729
v  -0.0819 14.8003 -0.1418
v  -0.0000 19.4655 -0.1997
v  -0.0000 14.8003 -0.1637
v  0.0998 19.4655 -0.1729
v  0.0819 14.8003 -0.1418
v  0.1729 19.4655 -0.0998
v  0.1418 14.8003 -0.0819
v  -0.0000 19.6447 -0.0000
v  0.0439 19.6353 0.0439
v  0.0643 19.6353 -0.0000
v  0.0903 0.0780 0.0000
v  0.0782 0.0780 0.0452
v  0.0624 0.0354 0.0360
v  0.0720 0.0354 0.0000
v  0.0451 0.0780 0.0782
v  0.0360 0.0354 0.0624
v  -0.0000 0.0780 0.0903
v  -0.0000 0.0354 0.0720
v  -0.0451 0.0780 0.0782
v  -0.0360 0.0354 0.0624
v  -0.0782 0.0780 0.0452
v  -0.0624 0.0354 0.0360
v  -0.0903 0.0780 0.0000
v  -0.0720 0.0354 0.0000
v  -0.0782 0.0780 -0.0451
v  -0.0624 0.0354 -0.0360
v  -0.0452 0.0780 -0.0782
v  -0.0360 0.0354 -0.0624
v  -0.0000 0.0780 -0.0903
v  -0.0000 0.0354 -0.0720
v  0.0451 0.0780 -0.0782
v  0.0360 0.0354 -0.0624
v  0.0782 0.0780 -0.0451
v  0.0624 0.0354 -0.0360
v  0.0280 0.0126 0.0280
v  0.0410 0.0126 0.0000
v  -0.0000 0.0126 0.0410
v  -0.0280 0.0126 0.0280
v  -0.0410 0.0126 0.0000
v  -0.0280 0.0126 -0.0280
v  -0.0000 0.0126 -0.0409
v  0.0280 0.0126 -0.0280
v  -0.0000 0.0000 0.0000
v  0.0797 0.2084 0.0460
v  0.0920 0.2084 0.0000
v  0.0460 0.2084 0.0797
v  -0.0000 0.2084 0.0920
v  -0.0460 0.2084 0.0797
v  -0.0797 0.2084 0.0460
v  -0.0920 0.2084 0.0000
v  -0.0797 0.2084 -0.0460
v  -0.0460 0.2084 -0.0797
v  -0.0000 0.2084 -0.0920
v  0.0460 0.2084 -0.0797
v  0.0797 0.2084 -0.0460
v  0.1766 19.5354 -0.0000
v  0.1529 19.5354 0.0883
v  0.1529 19.5354 -0.0883
v  0.0883 19.5354 -0.1529
v  -0.0000 19.5354 -0.1766
v  -0.0883 19.5354 -0.1529
v  -0.1529 19.5354 -0.0883
v  -0.1766 19.5354 -0.0000
v  -0.1529 19.5354 0.0883
v  -0.0883 19.5354 0.1529
v  -0.0000 19.5354 0.1766
v  0.0883 19.5354 0.1529
v  0.1307 19.5950 -0.0000
v  0.1132 19.5950 0.0654
v  0.1132 19.5950 -0.0654
v  0.0654 19.5950 -0.1132
v  -0.0000 19.5950 -0.1307
v  -0.0654 19.5950 -0.1132
v  -0.1132 19.5950 -0.0654
v  -0.1307 19.5950 -0.0000
v  -0.1132 19.5950 0.0654
v  -0.0654 19.5950 0.1132
v  -0.0000 19.5950 0.1307
v  0.0654 19.5950 0.1132
v  -0.0643 19.6353 -0.0000
v  -0.0439 19.6353 0.0439
v  0.0439 19.6353 -0.0439
v  -0.0439 19.6353 -0.0439
v  -0.0000 19.6353 0.0643
v  -0.0000 19.6353 -0.0643
v  0.0813 0.5689 0.0470
v  0.0939 0.5689 0.0000
v  0.0470 0.5689 0.0813
v  -0.0000 0.5689 0.0939
v  -0.0470 0.5689 0.0813
v  -0.0813 0.5689 0.0470
v  -0.0939 0.5689 0.0000
v  -0.0813 0.5689 -0.0470
v  -0.0470 0.5689 -0.0813
v  -0.0000 0.5689 -0.0939
v  0.0470 0.5689 -0.0813
v  0.0813 0.5689 -0.0470
# 114 vertices

vn 0.9924 0.1231 -0.0000
vn 0.8594 0.1231 0.4962
vn 0.8660 -0.0077 0.5000
vn 1.0000 -0.0077 -0.0000
vn 0.4962 0.1231 0.8594
vn 0.5000 -0.0077 0.8660
vn -0.0000 0.1231 0.9924
vn 0.0000 -0.0077 1.0000
vn -0.4962 0.1231 0.8594
vn -0.5000 -0.0077 0.8660
vn -0.8594 0.1231 0.4962
vn -0.8660 -0.0077 0.5000
vn -0.9924 0.1231 -0.0000
vn -1.0000 -0.0077 -0.0000
vn -0.8594 0.1231 -0.4962
vn -0.8660 -0.0077 -0.5000
vn -0.4962 0.1231 -0.8594
vn -0.5000 -0.0077 -0.8660
vn -0.0000 0.1231 -0.9924
vn 0.0000 -0.0077 -1.0000
vn 0.4962 0.1231 -0.8594
vn 0.5000 -0.0077 -0.8660
vn 0.8594 0.1231 -0.4962
vn 0.8660 -0.0077 -0.5000
vn -0.0000 1.0000 -0.0000
vn 0.2265 0.9473 0.2264
vn 0.3264 0.9452 -0.0000
vn 0.9608 -0.2774 -0.0000
vn 0.8320 -0.2774 0.4804
vn 0.5921 -0.7334 0.3339
vn 0.6857 -0.7279 0.0061
vn 0.4804 -0.2774 0.8320
vn 0.3434 -0.7262 0.5956
vn 0.0000 -0.2774 0.9608
vn -0.0061 -0.7279 0.6857
vn -0.4804 -0.2774 0.8320
vn -0.3339 -0.7334 0.5921
vn -0.8320 -0.2774 0.4804
vn -0.5956 -0.7262 0.3434
vn -0.9608 -0.2774 -0.0000
vn -0.6857 -0.7279 -0.0061
vn -0.8320 -0.2774 -0.4804
vn -0.5921 -0.7334 -0.3339
vn -0.4804 -0.2774 -0.8320
vn -0.3434 -0.7262 -0.5956
vn 0.0000 -0.2774 -0.9608
vn 0.0061 -0.7279 -0.6857
vn 0.4804 -0.2774 -0.8320
vn 0.3339 -0.7334 -0.5921
vn 0.8320 -0.2774 -0.4804
vn 0.5956 -0.7262 -0.3434
vn 0.2421 -0.9431 0.2280
vn 0.3449 -0.9385 0.0180
vn -0.0180 -0.9385 0.3449
vn -0.2280 -0.9431 0.2421
vn -0.3449 -0.9385 -0.0180
vn -0.2421 -0.9431 -0.2280
vn 0.0180 -0.9385 -0.3449
vn 0.2280 -0.9431 -0.2421
vn 0.0000 -1.0000 -0.0000
vn 0.8659 -0.0194 0.4999
vn 0.9998 -0.0194 -0.0000
vn 0.4999 -0.0194 0.8659
vn 0.0000 -0.0194 0.9998
vn -0.4999 -0.0194 0.8659
vn -0.8659 -0.0194 0.4999
vn -0.9998 -0.0194 -0.0000
vn -0.8659 -0.0194 -0.4999
vn -0.4999 -0.0194 -0.8659
vn 0.0000 -0.0194 -0.9998
vn 0.4999 -0.0194 -0.8659
vn 0.8659 -0.0194 -0.4999
vn 0.8912 0.4536 -0.0000
vn 0.7718 0.4536 0.4456
vn 0.7718 0.4536 -0.4456
vn 0.4456 0.4536 -0.7718
vn -0.0000 0.4536 -0.8912
vn -0.4456 0.4536 -0.7718
vn -0.7718 0.4536 -0.4456
vn -0.8912 0.4536 -0.0000
vn -0.7718 0.4536 0.4456
vn -0.4456 0.4536 0.7718
vn -0.0000 0.4536 0.8912
vn 0.4456 0.4536 0.7718
vn 0.6418 0.7669 -0.0000
vn 0.5537 0.7690 0.3194
vn 0.5537 0.7690 -0.3194
vn 0.3194 0.7690 -0.5537
vn -0.0000 0.7669 -0.6418
vn -0.3194 0.7690 -0.5537
vn -0.5537 0.7690 -0.3194
vn -0.6418 0.7669 -0.0000
vn -0.5537 0.7690 0.3194
vn -0.3195 0.7690 0.5536
vn -0.0000 0.7668 0.6419
vn 0.3195 0.7691 0.5536
vn -0.3264 0.9452 -0.0000
vn -0.2265 0.9473 0.2264
vn 0.2265 0.9473 -0.2265
vn -0.2265 0.9473 -0.2265
vn -0.0000 0.9453 0.3263
vn -0.0000 0.9452 -0.3264
vn 0.8660 -0.0078 0.5000
vn 1.0000 -0.0078 -0.0000
vn 0.5000 -0.0078 0.8660
vn 0.0000 -0.0078 1.0000
vn -0.5000 -0.0078 0.8660
vn -0.8660 -0.0078 0.5000
vn -1.0000 -0.0078 -0.0000
vn -0.8660 -0.0078 -0.5000
vn -0.5000 -0.0078 -0.8660
vn 0.0000 -0.0078 -1.0000
vn 0.5000 -0.0078 -0.8660
vn 0.8660 -0.0078 -0.5000
# 114 vertex normals

vt 0.7500 0.0000 1.0000
vt 0.8333 0.0000 1.0000
vt 0.8333 0.2413 1.0000
vt 0.7500 0.2413 1.0000
vt 0.9167 0.0000 1.0000
vt 0.9167 0.2413 1.0000
vt 1.0000 0.0000 1.0000
vt 1.0000 0.2413 1.0000
vt 0.0000 0.0000 1.0000
vt 0.0833 0.0000 1.0000
vt 0.0833 0.2413 1.0000
vt 0.0000 0.2413 1.0000
vt 0.1667 0.0000 1.0000
vt 0.1667 0.2413 1.0000
vt 0.2500 0.0000 1.0000
vt 0.2500 0.2413 1.0000
vt 0.3333 0.0000 1.0000
vt 0.3333 0.2413 1.0000
vt 0.4167 0.0000 1.0000
vt 0.4167 0.2413 1.0000
vt 0.5000 0.0000 1.0000
vt 0.5000 0.2413 1.0000
vt 0.5833 0.0000 1.0000
vt 0.5833 0.2413 1.0000
vt 0.6667 0.0000 1.0000
vt 0.6667 0.2413 1.0000
vt 0.5002 0.5000 -0.2500
vt 0.3293 0.6708 -0.2500
vt 0.5001 0.7500 -0.2500
vt 0.7500 1.0000 1.0000
vt 0.8333 1.0000 1.0000
vt 0.5417 0.9665 0.6250
vt 0.6250 1.0000 0.6250
vt 0.9167 1.0000 1.0000
vt 0.4918 0.8750 0.6250
vt 1.0000 1.0000 1.0000
vt 0.5000 0.7500 0.6250
vt 0.0000 1.0000 1.0000
vt 0.0833 1.0000 1.0000
vt 0.0752 0.6250 0.6250
vt 0.0000 0.7500 0.6250
vt 0.1667 1.0000 1.0000
vt 0.2083 0.5335 0.6250
vt 0.2500 1.0000 1.0000
vt 0.3750 0.5000 0.6250
vt 0.3333 1.0000 1.0000
vt 0.5417 0.5335 0.6250
vt 0.4167 1.0000 1.0000
vt 0.6748 0.6250 0.6250
vt 0.5000 1.0000 1.0000
vt 0.7500 0.7500 0.6250
vt 0.5833 1.0000 1.0000
vt 0.7582 0.8750 0.6250
vt 0.6667 1.0000 1.0000
vt 0.7083 0.9665 0.6250
vt 0.1585 0.8415 0.2500
vt 0.5000 1.0000 0.2500
vt 0.0000 0.5000 0.2500
vt 0.1585 0.1585 0.2500
vt 0.5000 0.0000 0.2500
vt 0.8415 0.1585 0.2500
vt 1.0000 0.5000 0.2500
vt 0.8415 0.8415 0.2500
vt 0.5064 0.5037 0.2500
vt 0.8333 0.9850 1.0000
vt 0.7500 0.9850 1.0000
vt 0.9167 0.9850 1.0000
vt 1.0000 0.9850 1.0000
vt 0.0833 0.9850 1.0000
vt 0.0000 0.9850 1.0000
vt 0.1667 0.9850 1.0000
vt 0.2500 0.9850 1.0000
vt 0.3333 0.9850 1.0000
vt 0.4167 0.9850 1.0000
vt 0.5000 0.9850 1.0000
vt 0.5833 0.9850 1.0000
vt 0.6667 0.9850 1.0000
vt 0.6250 0.5000 0.3750
vt 0.5417 0.4665 0.3750
vt 0.7083 0.4665 0.3750
vt 0.7582 0.3750 0.3750
vt 0.7500 0.2500 0.3750
vt 0.6748 0.1250 0.3750
vt 0.5417 0.0335 0.3750
vt 0.3750 0.0000 0.3750
vt 0.2083 0.0335 0.3750
vt 0.0752 0.1250 0.3750
vt 0.0000 0.2500 0.3750
vt 0.4918 0.3750 0.3750
vt 0.5000 0.2500 0.3750
vt 0.5000 1.0000 -0.2500
vt 0.2500 0.9330 -0.2500
vt 0.7500 0.9330 -0.2500
vt 0.9330 0.7500 -0.2500
vt 1.0000 0.5000 -0.2500
vt 0.9330 0.2500 -0.2500
vt 0.7500 0.0670 -0.2500
vt 0.5000 0.0000 -0.2500
vt 0.2500 0.0670 -0.2500
vt 0.0670 0.2500 -0.2500
vt 0.0000 0.5000 -0.2500
vt 0.0670 0.7500 -0.2500
vt 0.5001 0.2500 -0.2500
vt 0.3293 0.3292 -0.2500
vt 0.6708 0.6708 -0.2500
vt 0.6708 0.3292 -0.2500
vt 0.2501 0.5000 -0.2500
vt 0.7501 0.5000 -0.2500
vt 0.8333 0.9664 1.0000
vt 0.7500 0.9664 1.0000
vt 0.9167 0.9664 1.0000
vt 1.0000 0.9664 1.0000
vt 0.0833 0.9664 1.0000
vt 0.0000 0.9664 1.0000
vt 0.1667 0.9664 1.0000
vt 0.2500 0.9664 1.0000
vt 0.3333 0.9664 1.0000
vt 0.4167 0.9664 1.0000
vt 0.5000 0.9664 1.0000
vt 0.5833 0.9664 1.0000
vt 0.6667 0.9664 1.0000
# 121 texture coords

g Cylinder004
usemtl _QiuGanwire_088177027
s 2
f 1/1/1 2/2/2 3/3/3 4/4/4 
f 2/2/2 5/5/5 6/6/6 3/3/3 
f 5/5/5 7/7/7 8/8/8 6/6/6 
f 7/9/7 9/10/9 10/11/10 8/12/8 
f 9/10/9 11/13/11 12/14/12 10/11/10 
f 11/13/11 13/15/13 14/16/14 12/14/12 
f 13/15/13 15/17/15 16/18/16 14/16/14 
f 15/17/15 17/19/17 18/20/18 16/18/16 
f 17/19/17 19/21/19 20/22/20 18/20/18 
f 19/21/19 21/23/21 22/24/22 20/22/20 
f 21/23/21 23/25/23 24/26/24 22/24/22 
f 23/25/23 1/1/1 4/4/4 24/26/24 
f 25/27/25 26/28/26 27/29/27 
s 1
f 28/30/28 29/31/29 30/32/30 31/33/31 
f 29/31/29 32/34/32 33/35/33 30/32/30 
f 32/34/32 34/36/34 35/37/35 33/35/33 
f 34/38/34 36/39/36 37/40/37 35/41/35 
f 36/39/36 38/42/38 39/43/39 37/40/37 
f 38/42/38 40/44/40 41/45/41 39/43/39 
f 40/44/40 42/46/42 43/47/43 41/45/41 
f 42/46/42 44/48/44 45/49/45 43/47/43 
f 44/48/44 46/50/46 47/51/47 45/49/45 
f 46/50/46 48/52/48 49/53/49 47/51/47 
f 48/52/48 50/54/50 51/55/51 49/53/49 
f 50/54/50 28/30/28 31/33/31 51/55/51 
f 30/32/30 52/56/52 53/57/53 31/33/31 
f 33/35/33 52/56/52 30/32/30 
f 33/35/33 35/37/35 54/58/54 52/56/52 
f 37/40/37 55/59/55 54/58/54 35/41/35 
f 39/43/39 55/59/55 37/40/37 
f 39/43/39 41/45/41 56/60/56 55/59/55 
f 43/47/43 57/61/57 56/60/56 41/45/41 
f 45/49/45 57/61/57 43/47/43 
f 45/49/45 47/51/47 58/62/58 57/61/57 
f 49/53/49 59/63/59 58/62/58 47/51/47 
f 51/55/51 59/63/59 49/53/49 
f 51/55/51 31/33/31 53/57/53 59/63/59 
f 60/64/60 53/57/53 52/56/52 
f 52/56/52 54/58/54 60/64/60 
f 58/62/58 59/63/59 60/64/60 
f 57/61/57 58/62/58 60/64/60 
f 54/58/54 55/59/55 60/64/60 
f 56/60/56 57/61/57 60/64/60 
f 55/59/55 56/60/56 60/64/60 
f 60/64/60 59/63/59 53/57/53 
f 61/65/61 29/31/29 28/30/28 62/66/62 
f 63/67/63 32/34/32 29/31/29 61/65/61 
f 64/68/64 34/36/34 32/34/32 63/67/63 
f 65/69/65 36/39/36 34/38/34 64/70/64 
f 66/71/66 38/42/38 36/39/36 65/69/65 
f 67/72/67 40/44/40 38/42/38 66/71/66 
f 68/73/68 42/46/42 40/44/40 67/72/67 
f 69/74/69 44/48/44 42/46/42 68/73/68 
f 70/75/70 46/50/46 44/48/44 69/74/69 
f 71/76/71 48/52/48 46/50/46 70/75/70 
f 72/77/72 50/54/50 48/52/48 71/76/71 
f 62/66/62 28/30/28 50/54/50 72/77/72 
s 2
f 2/2/2 1/1/1 73/78/73 74/79/74 
f 1/1/1 23/25/23 75/80/75 73/78/73 
f 23/25/23 21/23/21 76/81/76 75/80/75 
f 21/23/21 19/21/19 77/82/77 76/81/76 
f 19/21/19 17/19/17 78/83/78 77/82/77 
f 17/19/17 15/17/15 79/84/79 78/83/78 
f 15/17/15 13/15/13 80/85/80 79/84/79 
f 13/15/13 11/13/11 81/86/81 80/85/80 
f 11/13/11 9/10/9 82/87/82 81/86/81 
f 9/10/9 7/9/7 83/88/83 82/87/82 
f 7/7/7 5/5/5 84/89/84 83/90/83 
f 5/5/5 2/2/2 74/79/74 84/89/84 
f 73/78/73 85/91/85 86/92/86 74/79/74 
f 75/80/75 87/93/87 85/91/85 73/78/73 
f 76/81/76 88/94/88 87/93/87 75/80/75 
f 77/82/77 89/95/89 88/94/88 76/81/76 
f 78/83/78 90/96/90 89/95/89 77/82/77 
f 79/84/79 91/97/91 90/96/90 78/83/78 
f 80/85/80 92/98/92 91/97/91 79/84/79 
f 81/86/81 93/99/93 92/98/92 80/85/80 
f 82/87/82 94/100/94 93/99/93 81/86/81 
f 83/88/83 95/101/95 94/100/94 82/87/82 
f 84/89/84 96/102/96 95/101/95 83/90/83 
f 74/79/74 86/92/86 96/102/96 84/89/84 
f 97/103/97 92/98/92 93/99/93 98/104/98 
f 27/29/27 85/91/85 87/93/87 99/105/99 
f 25/27/25 100/106/100 97/103/97 
f 101/107/101 98/104/98 94/100/94 95/101/95 
f 93/99/93 94/100/94 98/104/98 
f 102/108/102 99/105/99 88/94/88 89/95/89 
f 87/93/87 88/94/88 99/105/99 
f 25/27/25 101/107/101 26/28/26 
f 25/27/25 102/108/102 100/106/100 
f 27/29/27 26/28/26 86/92/86 85/91/85 
f 98/104/98 25/27/25 97/103/97 
f 99/105/99 25/27/25 27/29/27 
f 97/103/97 100/106/100 91/97/91 92/98/92 
f 101/107/101 25/27/25 98/104/98 
f 102/108/102 25/27/25 99/105/99 
f 101/107/101 95/101/95 96/102/96 26/28/26 
f 26/28/26 96/102/96 86/92/86 
f 102/108/102 89/95/89 90/96/90 100/106/100 
f 100/106/100 90/96/90 91/97/91 
f 3/3/3 103/109/3 104/110/4 4/4/4 
f 6/6/6 105/111/6 103/109/3 3/3/3 
f 8/8/8 106/112/8 105/111/6 6/6/6 
f 10/11/10 107/113/10 106/114/8 8/12/8 
f 12/14/12 108/115/12 107/113/10 10/11/10 
f 14/16/14 109/116/14 108/115/12 12/14/12 
f 16/18/16 110/117/16 109/116/14 14/16/14 
f 18/20/18 111/118/18 110/117/16 16/18/16 
f 20/22/20 112/119/20 111/118/18 18/20/18 
f 22/24/22 113/120/22 112/119/20 20/22/20 
f 24/26/24 114/121/24 113/120/22 22/24/22 
f 4/4/4 104/110/4 114/121/24 24/26/24 
s 4
f 103/109/103 61/65/103 62/66/104 104/110/104 
f 105/111/105 63/67/105 61/65/103 103/109/103 
f 106/112/106 64/68/106 63/67/105 105/111/105 
f 107/113/107 65/69/107 64/70/106 106/114/106 
f 108/115/108 66/71/108 65/69/107 107/113/107 
f 109/116/109 67/72/109 66/71/108 108/115/108 
f 110/117/110 68/73/110 67/72/109 109/116/109 
f 111/118/111 69/74/111 68/73/110 110/117/110 
f 112/119/112 70/75/112 69/74/111 111/118/111 
f 113/120/113 71/76/113 70/75/112 112/119/112 
f 114/121/114 72/77/114 71/76/113 113/120/113 
f 104/110/104 62/66/104 72/77/114 114/121/114 
# 100 polygons - 24 triangles

