# 3ds Max Wavefront OBJ Exporter v0.97b - (c)2007 guruware
# File Created: 15.08.2014 01:42:07

mtllib QiuGan_03.mtl

#
# object 03
#

v  0.0678 19.3846 0.0678
v  0.0993 19.3846 0.0000
v  0.3011 19.5712 0.0000
v  0.2159 19.5712 0.2159
v  0.0000 19.3846 0.0993
v  -0.0000 19.5712 0.3011
v  -0.0678 19.3846 0.0678
v  -0.2159 19.5712 0.2159
v  -0.0993 19.3846 0.0000
v  -0.3011 19.5712 0.0000
v  -0.0678 19.3846 -0.0678
v  -0.2159 19.5712 -0.2159
v  0.0000 19.3846 -0.0993
v  -0.0000 19.5712 -0.3011
v  0.0678 19.3846 -0.0678
v  0.2159 19.5712 -0.2159
v  0.0720 0.0298 -0.0000
v  0.0903 0.0724 -0.0000
v  0.0782 0.0724 0.0452
v  0.0624 0.0298 0.0360
v  0.0451 0.0724 0.0782
v  0.0360 0.0298 0.0624
v  0.0000 0.0724 0.0903
v  0.0000 0.0298 0.0720
v  -0.0451 0.0724 0.0782
v  -0.0360 0.0298 0.0624
v  -0.0782 0.0724 0.0452
v  -0.0624 0.0298 0.0360
v  -0.0903 0.0724 -0.0000
v  -0.0720 0.0298 -0.0000
v  -0.0782 0.0724 -0.0451
v  -0.0624 0.0298 -0.0360
v  -0.0452 0.0724 -0.0782
v  -0.0360 0.0298 -0.0624
v  0.0000 0.0724 -0.0903
v  0.0000 0.0298 -0.0720
v  0.0451 0.0724 -0.0782
v  0.0360 0.0298 -0.0624
v  0.0782 0.0724 -0.0451
v  0.0624 0.0298 -0.0360
v  0.0410 0.0070 -0.0000
v  0.0280 0.0070 0.0280
v  0.0000 0.0070 0.0410
v  -0.0280 0.0070 0.0280
v  -0.0410 0.0070 -0.0000
v  -0.0280 0.0070 -0.0280
v  0.0000 0.0070 -0.0409
v  0.0280 0.0070 -0.0280
v  0.0000 0.0000 -0.0000
v  0.0920 0.2084 -0.0000
v  0.0797 0.2084 0.0460
v  0.0460 0.2084 0.0797
v  0.0000 0.2084 0.0920
v  -0.0460 0.2084 0.0797
v  -0.0797 0.2084 0.0460
v  -0.0920 0.2084 -0.0000
v  -0.0797 0.2084 -0.0460
v  -0.0460 0.2084 -0.0797
v  0.0000 0.2084 -0.0920
v  0.0460 0.2084 -0.0797
v  0.0797 0.2084 -0.0460
v  0.1637 14.8003 -0.0000
v  0.1418 14.8003 0.0819
v  0.0813 0.5689 0.0470
v  0.0939 0.5689 -0.0000
v  0.0819 14.8003 0.1418
v  0.0470 0.5689 0.0813
v  0.0000 14.8003 0.1637
v  0.0000 0.5689 0.0939
v  -0.0819 14.8003 0.1418
v  -0.0470 0.5689 0.0813
v  -0.1418 14.8003 0.0819
v  -0.0813 0.5689 0.0470
v  -0.1637 14.8003 -0.0000
v  -0.0939 0.5689 -0.0000
v  -0.1418 14.8003 -0.0819
v  -0.0813 0.5689 -0.0470
v  -0.0819 14.8003 -0.1418
v  -0.0470 0.5689 -0.0813
v  0.0000 14.8003 -0.1637
v  0.0000 0.5689 -0.0939
v  0.0819 14.8003 -0.1418
v  0.0470 0.5689 -0.0813
v  0.1418 14.8003 -0.0819
v  0.0813 0.5689 -0.0470
v  0.1714 19.2882 0.0989
v  0.1979 19.2882 0.0000
v  0.0989 19.2882 0.1714
v  0.0000 19.2882 0.1979
v  -0.0989 19.2882 0.1714
v  -0.1714 19.2882 0.0989
v  -0.1979 19.2882 0.0000
v  -0.1714 19.2882 -0.0989
v  -0.0989 19.2882 -0.1714
v  0.0000 19.2882 -0.1979
v  0.0989 19.2882 -0.1714
v  0.1714 19.2882 -0.0989
v  0.1801 19.6462 0.0000
v  0.1291 19.6462 0.1291
v  -0.0000 19.6462 0.1801
v  -0.1291 19.6462 0.1291
v  -0.1801 19.6462 0.0000
v  -0.1291 19.6462 -0.1291
v  -0.0000 19.6462 -0.1801
v  0.1291 19.6462 -0.1291
# 105 vertices

vn 0.7071 0.0023 0.7071
vn 1.0000 0.0040 -0.0000
vn 0.9924 0.1230 -0.0000
vn 0.8594 0.1230 0.4962
vn 0.0000 0.0040 1.0000
vn 0.2667 -0.7133 0.6481
vn 0.0000 0.1230 0.9924
vn -0.7071 0.0023 0.7071
vn -0.4962 0.1230 0.8594
vn -1.0000 0.0040 -0.0000
vn -0.6481 -0.7133 0.2667
vn -0.9924 0.1230 -0.0000
vn -0.7071 0.0023 -0.7071
vn -0.8594 0.1230 -0.4962
vn 0.0000 0.0040 -1.0000
vn -0.2667 -0.7133 -0.6481
vn 0.0000 0.1230 -0.9924
vn 0.7071 0.0023 -0.7071
vn 0.4962 0.1230 -0.8594
vn 0.6481 -0.7133 -0.2667
vn 0.6857 -0.7279 0.0061
vn 0.9608 -0.2774 -0.0000
vn 0.8320 -0.2774 0.4804
vn 0.5921 -0.7334 0.3339
vn 0.4804 -0.2774 0.8320
vn 0.3434 -0.7262 0.5956
vn 0.0000 -0.2774 0.9608
vn -0.0061 -0.7279 0.6857
vn -0.4804 -0.2774 0.8320
vn -0.3339 -0.7334 0.5921
vn -0.8320 -0.2774 0.4804
vn -0.5956 -0.7262 0.3434
vn -0.9608 -0.2774 -0.0000
vn -0.6857 -0.7279 -0.0061
vn -0.8320 -0.2774 -0.4804
vn -0.5921 -0.7334 -0.3339
vn -0.4804 -0.2774 -0.8320
vn -0.3434 -0.7262 -0.5956
vn 0.0000 -0.2774 -0.9608
vn 0.0061 -0.7279 -0.6857
vn 0.4804 -0.2774 -0.8320
vn 0.3339 -0.7334 -0.5921
vn 0.8320 -0.2774 -0.4804
vn 0.5956 -0.7262 -0.3434
vn 0.3449 -0.9385 0.0180
vn 0.2421 -0.9431 0.2280
vn -0.0180 -0.9385 0.3449
vn -0.2280 -0.9431 0.2421
vn -0.3449 -0.9385 -0.0180
vn -0.2421 -0.9431 -0.2280
vn 0.0180 -0.9385 -0.3449
vn 0.2280 -0.9431 -0.2421
vn 0.0000 -1.0000 -0.0000
vn 0.9998 -0.0194 -0.0000
vn 0.8659 -0.0194 0.4999
vn 0.4999 -0.0194 0.8659
vn 0.0000 -0.0194 0.9998
vn -0.4999 -0.0194 0.8659
vn -0.8659 -0.0194 0.4999
vn -0.9998 -0.0194 -0.0000
vn -0.8659 -0.0194 -0.4999
vn -0.4999 -0.0194 -0.8659
vn 0.0000 -0.0194 -0.9998
vn 0.4999 -0.0194 -0.8659
vn 0.8659 -0.0194 -0.4999
vn 1.0000 -0.0077 -0.0000
vn 0.8660 -0.0077 0.5000
vn 0.5000 -0.0077 0.8660
vn 0.0000 -0.0077 1.0000
vn -0.5000 -0.0077 0.8660
vn -0.8660 -0.0077 0.5000
vn -1.0000 -0.0077 -0.0000
vn -0.8660 -0.0077 -0.5000
vn -0.5000 -0.0077 -0.8660
vn 0.0000 -0.0077 -1.0000
vn 0.5000 -0.0077 -0.8660
vn 0.8660 -0.0077 -0.5000
vn 1.0000 -0.0078 -0.0000
vn 0.8660 -0.0078 0.5000
vn 0.5000 -0.0078 0.8660
vn 0.0000 -0.0078 1.0000
vn -0.5000 -0.0078 0.8660
vn -0.8660 -0.0078 0.5000
vn -1.0000 -0.0078 -0.0000
vn -0.8660 -0.0078 -0.5000
vn -0.5000 -0.0078 -0.8660
vn 0.0000 -0.0078 -1.0000
vn 0.5000 -0.0078 -0.8660
vn 0.8660 -0.0078 -0.5000
vn 0.8032 0.3679 0.4685
vn 0.9259 0.3779 -0.0000
vn 0.4685 0.3679 0.8032
vn 0.0000 0.3779 0.9259
vn -0.4685 0.3679 0.8032
vn -0.8032 0.3679 0.4685
vn -0.9259 0.3779 -0.0000
vn -0.8032 0.3679 -0.4685
vn -0.4685 0.3679 -0.8032
vn 0.0000 0.3779 -0.9259
vn 0.4685 0.3679 -0.8032
vn 0.8032 0.3679 -0.4685
vn -0.1316 0.9629 0.2357
vn 0.5158 0.8321 0.2037
vn 0.2037 0.8321 0.5158
vn 0.3277 0.9318 -0.1561
vn 0.3911 0.9046 0.1696
vn -0.3911 0.9046 0.1696
vn -0.2037 0.8321 0.5158
vn -0.1862 0.9666 -0.1764
vn -0.5158 0.8321 0.2037
vn -0.5158 0.8321 -0.2037
vn -0.4025 0.8522 -0.3343
vn -0.2037 0.8321 -0.5158
vn 0.2037 0.8321 -0.5158
vn 0.3343 0.8522 -0.4025
vn 0.5158 0.8321 -0.2037
vn 0.0000 1.0000 -0.0000
vn 0.8660 -0.0076 0.5000
vn 1.0000 -0.0076 -0.0000
vn 0.5000 -0.0076 0.8660
vn 0.0000 -0.0076 1.0000
vn -0.5000 -0.0076 0.8660
vn -0.8660 -0.0076 0.5000
vn -1.0000 -0.0076 -0.0000
vn -0.8660 -0.0076 -0.5000
vn -0.5000 -0.0076 -0.8660
vn 0.0000 -0.0076 -1.0000
vn 0.5000 -0.0076 -0.8660
vn 0.8660 -0.0076 -0.5000
# 129 vertex normals

vt 0.8871 0.5445 0.2696
vt 0.9394 0.5445 0.2696
vt 0.9394 0.5594 0.7903
vt 0.8871 0.5594 0.7903
vt 0.8348 0.5445 0.2696
vt 0.8348 0.5594 0.7903
vt 0.7824 0.5445 0.2696
vt 0.7824 0.5594 0.7903
vt 0.7301 0.5445 0.2696
vt 0.7301 0.5594 0.7903
vt 0.6778 0.5445 0.2696
vt 0.6778 0.5594 0.7903
vt 0.6254 0.5445 0.2696
vt 0.6254 0.5594 0.7903
vt 0.5731 0.5445 0.2696
vt 0.5731 0.5594 0.7903
vt 0.5208 0.5445 0.2696
vt 0.5208 0.5594 0.7903
vt 0.9069 0.6495 0.5000
vt 0.9395 0.6495 0.5000
vt 0.9278 0.6560 0.6131
vt 0.8995 0.6535 0.5900
vt 0.8963 0.6607 0.6956
vt 0.8799 0.6564 0.6561
vt 0.8534 0.6625 0.7259
vt 0.8534 0.6576 0.6801
vt 0.8104 0.6607 0.6956
vt 0.8269 0.6564 0.6561
vt 0.7789 0.6560 0.6131
vt 0.8073 0.6535 0.5900
vt 0.7672 0.6495 0.5000
vt 0.7998 0.6495 0.5000
vt 0.7789 0.6430 0.3872
vt 0.8073 0.6455 0.4100
vt 0.8104 0.6383 0.3044
vt 0.8269 0.6426 0.3439
vt 0.8534 0.6365 0.2741
vt 0.8534 0.6414 0.3199
vt 0.8963 0.6383 0.3044
vt 0.8799 0.6426 0.3439
vt 0.9278 0.6430 0.3872
vt 0.8995 0.6455 0.4100
vt 0.8810 0.6495 0.5000
vt 0.8720 0.6523 0.5700
vt 0.8534 0.6537 0.6026
vt 0.8347 0.6523 0.5700
vt 0.8257 0.6495 0.5000
vt 0.8347 0.6467 0.4300
vt 0.8534 0.6453 0.3977
vt 0.8720 0.6467 0.4300
vt 0.8534 0.6495 0.5000
vt 0.9395 0.6897 0.5000
vt 0.9046 0.6897 0.6151
vt 0.9046 0.6746 0.6131
vt 0.9395 0.6746 0.5000
vt 0.8698 0.6897 0.6994
vt 0.8698 0.6746 0.6956
vt 0.8349 0.6897 0.7301
vt 0.8349 0.6746 0.7259
vt 0.8001 0.6897 0.6994
vt 0.8001 0.6746 0.6956
vt 0.7653 0.6897 0.6151
vt 0.7653 0.6746 0.6131
vt 0.7304 0.6897 0.5000
vt 0.7304 0.6746 0.5000
vt 0.6956 0.6897 0.3849
vt 0.6956 0.6746 0.3872
vt 0.6607 0.6897 0.3007
vt 0.6607 0.6746 0.3044
vt 0.6259 0.6897 0.2699
vt 0.6259 0.6746 0.2741
vt 0.5910 0.6897 0.3007
vt 0.5910 0.6746 0.3044
vt 0.5562 0.6897 0.3849
vt 0.5562 0.6746 0.3872
vt 0.5214 0.6897 0.5000
vt 0.5214 0.6746 0.5000
vt 0.4601 0.9965 0.5000
vt 0.4252 0.9965 0.7049
vt 0.4252 0.0028 0.6176
vt 0.4601 0.0028 0.5000
vt 0.3904 0.9965 0.8547
vt 0.3904 0.0028 0.7034
vt 0.3555 0.9965 0.9095
vt 0.3555 0.0028 0.7349
vt 0.3206 0.9965 0.8547
vt 0.3206 0.0028 0.7034
vt 0.2858 0.9965 0.7049
vt 0.2858 0.0028 0.6176
vt 0.2509 0.9965 0.5000
vt 0.2509 0.0028 0.5000
vt 0.2160 0.9965 0.2951
vt 0.2160 0.0028 0.3824
vt 0.1811 0.9965 0.1453
vt 0.1811 0.0028 0.2967
vt 0.1463 0.9965 0.0905
vt 0.1463 0.0028 0.2651
vt 0.1114 0.9965 0.1453
vt 0.1114 0.0028 0.2967
vt 0.0765 0.9965 0.2951
vt 0.0765 0.0028 0.3824
vt 0.0417 0.9965 0.5000
vt 0.0417 0.0028 0.5000
vt 0.9395 0.7376 0.5000
vt 0.9046 0.7376 0.6176
vt 0.9046 0.6982 0.6151
vt 0.9395 0.6982 0.5000
vt 0.8696 0.7376 0.7034
vt 0.8696 0.6982 0.6994
vt 0.8347 0.7376 0.7349
vt 0.8347 0.6982 0.7301
vt 0.7998 0.7376 0.7034
vt 0.7998 0.6982 0.6994
vt 0.7649 0.7376 0.6176
vt 0.7649 0.6982 0.6151
vt 0.7300 0.7376 0.5000
vt 0.7300 0.6982 0.5000
vt 0.6951 0.7376 0.3824
vt 0.6951 0.6982 0.3849
vt 0.6602 0.7376 0.2967
vt 0.6602 0.6982 0.3007
vt 0.6253 0.7376 0.2651
vt 0.6253 0.6982 0.2699
vt 0.5904 0.7376 0.2967
vt 0.5904 0.6982 0.3007
vt 0.5555 0.7376 0.3824
vt 0.5555 0.6982 0.3849
vt 0.5206 0.7376 0.5000
vt 0.5206 0.6982 0.5000
vt 0.9036 0.9843 0.7474
vt 0.9385 0.9843 0.5000
vt 0.9385 0.9925 0.2696
vt 0.8862 0.9925 0.2696
vt 0.8687 0.9843 0.9286
vt 0.8339 0.9843 0.9950
vt 0.8339 0.9925 0.2696
vt 0.7990 0.9843 0.9286
vt 0.7815 0.9925 0.2696
vt 0.7641 0.9843 0.7474
vt 0.7292 0.9843 0.5000
vt 0.7292 0.9925 0.2696
vt 0.6943 0.9843 0.2526
vt 0.6769 0.9925 0.2696
vt 0.6595 0.9843 0.0714
vt 0.6246 0.9843 0.0050
vt 0.6246 0.9925 0.2696
vt 0.5897 0.9843 0.0714
vt 0.5723 0.9925 0.2696
vt 0.5548 0.9843 0.2526
vt 0.5199 0.9843 0.5000
vt 0.5199 0.9925 0.2696
vt 0.7935 0.5845 0.7903
vt 0.8464 0.6014 0.7903
vt 0.7729 0.6014 0.9995
vt 0.7487 0.5919 0.9995
vt 0.6844 0.5780 0.7903
vt 0.6844 0.5880 0.9995
vt 0.5754 0.5845 0.7903
vt 0.6202 0.5919 0.9995
vt 0.5211 0.6014 0.7903
vt 0.5942 0.6014 0.9995
vt 0.5754 0.6183 0.7903
vt 0.6202 0.6110 0.9995
vt 0.6844 0.6248 0.7903
vt 0.6844 0.6148 0.9995
vt 0.7935 0.6183 0.7903
vt 0.7487 0.6110 0.9995
vt 0.9036 0.7496 0.7049
vt 0.9385 0.7496 0.5000
vt 0.8687 0.7496 0.8547
vt 0.8339 0.7496 0.9095
vt 0.7990 0.7496 0.8547
vt 0.7641 0.7496 0.7049
vt 0.7292 0.7496 0.5000
vt 0.6943 0.7496 0.2951
vt 0.6595 0.7496 0.1453
vt 0.6246 0.7496 0.0905
vt 0.5897 0.7496 0.1453
vt 0.5548 0.7496 0.2951
vt 0.5199 0.7496 0.5000
# 180 texture coords

g 03
usemtl Material__30
s 2
f 1/1/1 2/2/2 3/3/3 4/4/4 
f 5/5/5 1/1/1 4/4/6 6/6/7 
f 7/7/8 5/5/5 6/6/7 8/8/9 
f 9/9/10 7/7/8 8/8/11 10/10/12 
f 11/11/13 9/9/10 10/10/12 12/12/14 
f 13/13/15 11/11/13 12/12/16 14/14/17 
f 15/15/18 13/13/15 14/14/17 16/16/19 
f 2/17/2 15/15/18 16/16/20 3/18/3 
s 1
f 17/19/21 18/20/22 19/21/23 20/22/24 
f 20/22/24 19/21/23 21/23/25 22/24/26 
f 22/24/26 21/23/25 23/25/27 24/26/28 
f 24/26/28 23/25/27 25/27/29 26/28/30 
f 26/28/30 25/27/29 27/29/31 28/30/32 
f 28/30/32 27/29/31 29/31/33 30/32/34 
f 30/32/34 29/31/33 31/33/35 32/34/36 
f 32/34/36 31/33/35 33/35/37 34/36/38 
f 34/36/38 33/35/37 35/37/39 36/38/40 
f 36/38/40 35/37/39 37/39/41 38/40/42 
f 38/40/42 37/39/41 39/41/43 40/42/44 
f 40/42/44 39/41/43 18/20/22 17/19/21 
f 41/43/45 17/19/21 20/22/24 42/44/46 
f 22/24/26 42/44/46 20/22/24 
f 43/45/47 42/44/46 22/24/26 24/26/28 
f 43/45/47 24/26/28 26/28/30 44/46/48 
f 28/30/32 44/46/48 26/28/30 
f 45/47/49 44/46/48 28/30/32 30/32/34 
f 45/47/49 30/32/34 32/34/36 46/48/50 
f 34/36/38 46/48/50 32/34/36 
f 47/49/51 46/48/50 34/36/38 36/38/40 
f 47/49/51 36/38/40 38/40/42 48/50/52 
f 40/42/44 48/50/52 38/40/42 
f 41/43/45 48/50/52 40/42/44 17/19/21 
f 49/51/53 41/43/45 42/44/46 
f 42/44/46 43/45/47 49/51/53 
f 47/49/51 48/50/52 49/51/53 
f 46/48/50 47/49/51 49/51/53 
f 43/45/47 44/46/48 49/51/53 
f 45/47/49 46/48/50 49/51/53 
f 44/46/48 45/47/49 49/51/53 
f 49/51/53 48/50/52 41/43/45 
f 50/52/54 51/53/55 19/54/23 18/55/22 
f 51/53/55 52/56/56 21/57/25 19/54/23 
f 52/56/56 53/58/57 23/59/27 21/57/25 
f 53/58/57 54/60/58 25/61/29 23/59/27 
f 54/60/58 55/62/59 27/63/31 25/61/29 
f 55/62/59 56/64/60 29/65/33 27/63/31 
f 56/64/60 57/66/61 31/67/35 29/65/33 
f 57/66/61 58/68/62 33/69/37 31/67/35 
f 58/68/62 59/70/63 35/71/39 33/69/37 
f 59/70/63 60/72/64 37/73/41 35/71/39 
f 60/72/64 61/74/65 39/75/43 37/73/41 
f 61/74/65 50/76/54 18/77/22 39/75/43 
s 2
f 62/78/66 63/79/67 64/80/67 65/81/66 
f 63/79/67 66/82/68 67/83/68 64/80/67 
f 66/82/68 68/84/69 69/85/69 67/83/68 
f 68/84/69 70/86/70 71/87/70 69/85/69 
f 70/86/70 72/88/71 73/89/71 71/87/70 
f 72/88/71 74/90/72 75/91/72 73/89/71 
f 74/90/72 76/92/73 77/93/73 75/91/72 
f 76/92/73 78/94/74 79/95/74 77/93/73 
f 78/94/74 80/96/75 81/97/75 79/95/74 
f 80/96/75 82/98/76 83/99/76 81/97/75 
f 82/98/76 84/100/77 85/101/77 83/99/76 
f 84/100/77 62/102/66 65/103/66 85/101/77 
s 4
f 65/104/78 64/105/79 51/106/79 50/107/78 
f 64/105/79 67/108/80 52/109/80 51/106/79 
f 67/108/80 69/110/81 53/111/81 52/109/80 
f 69/110/81 71/112/82 54/113/82 53/111/81 
f 71/112/82 73/114/83 55/115/83 54/113/82 
f 73/114/83 75/116/84 56/117/84 55/115/83 
f 75/116/84 77/118/85 57/119/85 56/117/84 
f 77/118/85 79/120/86 58/121/86 57/119/85 
f 79/120/86 81/122/87 59/123/87 58/121/86 
f 81/122/87 83/124/88 60/125/88 59/123/87 
f 83/124/88 85/126/89 61/127/89 60/125/88 
f 85/126/89 65/128/78 50/129/78 61/127/89 
s 2
f 86/130/90 87/131/91 2/132/2 1/133/1 
f 1/133/1 88/134/92 86/130/90 
f 89/135/93 88/134/92 1/133/1 5/136/5 
f 90/137/94 89/135/93 5/136/5 7/138/8 
f 7/138/8 91/139/95 90/137/94 
f 92/140/96 91/139/95 7/138/8 9/141/10 
f 93/142/97 92/140/96 9/141/10 11/143/13 
f 11/143/13 94/144/98 93/142/97 
f 95/145/99 94/144/98 11/143/13 13/146/15 
f 96/147/100 95/145/99 13/146/15 15/148/18 
f 15/148/18 97/149/101 96/147/100 
f 87/150/91 97/149/101 15/148/18 2/151/2 
s off
f 4/152/102 3/153/25 98/154/27 99/155/103 
f 6/156/104 4/152/105 99/155/106 100/157/104 
f 8/158/107 6/156/25 100/157/108 101/159/108 
f 10/160/109 8/158/25 101/159/102 102/161/110 
f 12/162/107 10/160/111 102/161/112 103/163/26 
f 14/164/26 12/162/112 103/163/113 104/165/113 
f 16/166/109 14/164/114 104/165/115 105/167/105 
f 3/153/105 16/166/115 105/167/106 98/154/116 
f 98/154/117 102/161/117 99/155/117 
f 98/154/117 105/167/117 102/161/117 
f 102/161/117 101/159/117 100/157/117 
f 102/161/117 100/157/117 99/155/117 
f 104/165/117 103/163/117 102/161/117 
f 105/167/117 104/165/117 102/161/117 
s 2
f 63/168/118 62/169/119 87/131/91 86/130/90 
f 66/170/120 63/168/118 86/130/90 88/134/92 
f 68/171/121 66/170/120 88/134/92 89/135/93 
f 70/172/122 68/171/121 89/135/93 90/137/94 
f 72/173/123 70/172/122 90/137/94 91/139/95 
f 74/174/124 72/173/123 91/139/95 92/140/96 
f 76/175/125 74/174/124 92/140/96 93/142/97 
f 78/176/126 76/175/125 93/142/97 94/144/98 
f 80/177/127 78/176/126 94/144/98 95/145/99 
f 82/178/128 80/177/127 95/145/99 96/147/100 
f 84/179/129 82/178/128 96/147/100 97/149/101 
f 62/180/119 84/179/129 97/149/101 87/150/91 
# 92 polygons - 22 triangles

